<?xml version="1.0" encoding="UTF-8" standalone="no"?>
<!DOCTYPE svg PUBLIC "-//W3C//DTD SVG 1.1//EN"
 "http://www.w3.org/Graphics/SVG/1.1/DTD/svg11.dtd">
<!-- Generated by graphviz version 2.40.1 (20161225.0304)
 -->
<!-- Title: dependencies Pages: 1 -->
<svg width="982pt" height="284pt"
 viewBox="0.00 0.00 982.00 284.00" xmlns="http://www.w3.org/2000/svg" xmlns:xlink="http://www.w3.org/1999/xlink">
<g id="graph0" class="graph" transform="scale(1 1) rotate(0) translate(4 280)">
<title>dependencies</title>
<polygon fill="#ffffff" stroke="transparent" points="-4,4 -4,-280 978,-280 978,4 -4,4"/>
<text text-anchor="start" x="466.0091" y="-42.4" font-family="sans-serif" font-weight="bold" font-size="14.00" fill="#000000">Legend</text>
<polygon fill="#ffffb3" stroke="transparent" points="253,-10 253,-30 273,-30 273,-10 253,-10"/>
<text text-anchor="start" x="276.629" y="-15.4" font-family="sans-serif" font-size="14.00" fill="#000000"> &#160;Declarations</text>
<polygon fill="#8dd3c7" stroke="transparent" points="366,-10 366,-30 386,-30 386,-10 366,-10"/>
<text text-anchor="start" x="389.7251" y="-15.4" font-family="sans-serif" font-size="14.00" fill="#000000"> &#160;Module</text>
<polygon fill="#80b1d3" stroke="transparent" points="452,-10 452,-30 472,-30 472,-10 452,-10"/>
<text text-anchor="start" x="475.7812" y="-15.4" font-family="sans-serif" font-size="14.00" fill="#000000"> &#160;Bootstrap</text>
<polygon fill="#fdb462" stroke="transparent" points="549,-10 549,-30 569,-30 569,-10 549,-10"/>
<text text-anchor="start" x="572.6732" y="-15.4" font-family="sans-serif" font-size="14.00" fill="#000000"> &#160;Providers</text>
<polygon fill="#fb8072" stroke="transparent" points="645,-10 645,-30 665,-30 665,-10 645,-10"/>
<text text-anchor="start" x="668.7258" y="-15.4" font-family="sans-serif" font-size="14.00" fill="#000000"> &#160;Exports</text>
<g id="clust1" class="cluster">
<title>cluster_AppModule</title>
<polygon fill="none" stroke="#000000" stroke-dasharray="1,5" points="8,-70 8,-268 966,-268 966,-70 8,-70"/>
</g>
<g id="clust2" class="cluster">
<title>cluster_AppModule_declarations</title>
<polygon fill="none" stroke="#000000" points="300,-78 300,-130 958,-130 958,-78 300,-78"/>
</g>
<g id="clust7" class="cluster">
<title>cluster_AppModule_imports</title>
<polygon fill="none" stroke="#000000" points="16,-78 16,-130 292,-130 292,-78 16,-78"/>
</g>
<g id="clust9" class="cluster">
<title>cluster_AppModule_bootstrap</title>
<polygon fill="none" stroke="#000000" points="403,-208 403,-260 527,-260 527,-208 403,-208"/>
</g>
<!-- AppComponent -->
<g id="node1" class="node">
<title>AppComponent</title>
<polygon fill="#ffffb3" stroke="#000000" points="949.9399,-122 844.0601,-122 844.0601,-86 949.9399,-86 949.9399,-122"/>
<text text-anchor="middle" x="897" y="-99.8" font-family="Times,serif" font-size="14.00" fill="#000000">AppComponent</text>
</g>
<!-- AppModule -->
<g id="node5" class="node">
<title>AppModule</title>
<polygon fill="#8dd3c7" stroke="#000000" points="506.6571,-187 503.6571,-191 482.6571,-191 479.6571,-187 423.3429,-187 423.3429,-151 506.6571,-151 506.6571,-187"/>
<text text-anchor="middle" x="465" y="-164.8" font-family="Times,serif" font-size="14.00" fill="#000000">AppModule</text>
</g>
<!-- AppComponent&#45;&gt;AppModule -->
<g id="edge1" class="edge">
<title>AppComponent&#45;&gt;AppModule</title>
<path fill="none" stroke="#000000" d="M897,-122.2843C897,-143.3211 897,-175 897,-175 897,-175 516.8145,-175 516.8145,-175"/>
<polygon fill="#000000" stroke="#000000" points="516.8145,-171.5001 506.8145,-175 516.8145,-178.5001 516.8145,-171.5001"/>
</g>
<!-- NewUserDialogComponent -->
<g id="node2" class="node">
<title>NewUserDialogComponent</title>
<polygon fill="#ffffb3" stroke="#000000" points="826.2892,-122 653.7108,-122 653.7108,-86 826.2892,-86 826.2892,-122"/>
<text text-anchor="middle" x="740" y="-99.8" font-family="Times,serif" font-size="14.00" fill="#000000">NewUserDialogComponent</text>
</g>
<!-- NewUserDialogComponent&#45;&gt;AppModule -->
<g id="edge2" class="edge">
<title>NewUserDialogComponent&#45;&gt;AppModule</title>
<path fill="none" stroke="#000000" d="M740,-122.0225C740,-139.3734 740,-163 740,-163 740,-163 516.7666,-163 516.7666,-163"/>
<polygon fill="#000000" stroke="#000000" points="516.7666,-159.5001 506.7666,-163 516.7665,-166.5001 516.7666,-159.5001"/>
</g>
<!-- TeamOverviewComponent -->
<g id="node3" class="node">
<title>TeamOverviewComponent</title>
<polygon fill="#ffffb3" stroke="#000000" points="636.3989,-122 467.6011,-122 467.6011,-86 636.3989,-86 636.3989,-122"/>
<text text-anchor="middle" x="552" y="-99.8" font-family="Times,serif" font-size="14.00" fill="#000000">TeamOverviewComponent</text>
</g>
<!-- TeamOverviewComponent&#45;&gt;AppModule -->
<g id="edge3" class="edge">
<title>TeamOverviewComponent&#45;&gt;AppModule</title>
<path fill="none" stroke="#000000" d="M487.3145,-122.1061C487.3145,-122.1061 487.3145,-140.991 487.3145,-140.991"/>
<polygon fill="#000000" stroke="#000000" points="483.8146,-140.9909 487.3145,-150.991 490.8146,-140.991 483.8146,-140.9909"/>
</g>
<!-- UserDetailComponent -->
<g id="node4" class="node">
<title>UserDetailComponent</title>
<polygon fill="#ffffb3" stroke="#000000" points="449.9664,-122 308.0336,-122 308.0336,-86 449.9664,-86 449.9664,-122"/>
<text text-anchor="middle" x="379" y="-99.8" font-family="Times,serif" font-size="14.00" fill="#000000">UserDetailComponent</text>
</g>
<!-- UserDetailComponent&#45;&gt;AppModule -->
<g id="edge4" class="edge">
<title>UserDetailComponent&#45;&gt;AppModule</title>
<path fill="none" stroke="#000000" d="M436.5775,-122.1061C436.5775,-122.1061 436.5775,-140.991 436.5775,-140.991"/>
<polygon fill="#000000" stroke="#000000" points="433.0776,-140.9909 436.5775,-150.991 440.0776,-140.991 433.0776,-140.9909"/>
</g>
<!-- AppComponent  -->
<g id="node8" class="node">
<title>AppComponent </title>
<polygon fill="#80b1d3" stroke="#000000" points="519.439,-252 410.561,-252 410.561,-216 519.439,-216 519.439,-252"/>
<text text-anchor="middle" x="465" y="-229.8" font-family="Times,serif" font-size="14.00" fill="#000000">AppComponent </text>
</g>
<!-- AppModule&#45;&gt;AppComponent  -->
<g id="edge7" class="edge">
<title>AppModule&#45;&gt;AppComponent </title>
<path fill="none" stroke="#000000" stroke-dasharray="1,5" d="M465,-187.1061C465,-187.1061 465,-205.991 465,-205.991"/>
<polygon fill="#000000" stroke="#000000" points="461.5001,-205.9909 465,-215.991 468.5001,-205.991 461.5001,-205.9909"/>
</g>
<!-- AppRoutingModule -->
<g id="node6" class="node">
<title>AppRoutingModule</title>
<polygon fill="#8dd3c7" stroke="#000000" points="284.2744,-122 281.2744,-126 260.2744,-126 257.2744,-122 155.7256,-122 155.7256,-86 284.2744,-86 284.2744,-122"/>
<text text-anchor="middle" x="220" y="-99.8" font-family="Times,serif" font-size="14.00" fill="#000000">AppRoutingModule</text>
</g>
<!-- AppRoutingModule&#45;&gt;AppModule -->
<g id="edge5" class="edge">
<title>AppRoutingModule&#45;&gt;AppModule</title>
<path fill="none" stroke="#000000" d="M220,-122.0225C220,-139.3734 220,-163 220,-163 220,-163 413.1614,-163 413.1614,-163"/>
<polygon fill="#000000" stroke="#000000" points="413.1614,-166.5001 423.1614,-163 413.1613,-159.5001 413.1614,-166.5001"/>
</g>
<!-- TeamListModule -->
<g id="node7" class="node">
<title>TeamListModule</title>
<polygon fill="#8dd3c7" stroke="#000000" points="137.7008,-122 134.7008,-126 113.7008,-126 110.7008,-122 24.2992,-122 24.2992,-86 137.7008,-86 137.7008,-122"/>
<text text-anchor="middle" x="81" y="-99.8" font-family="Times,serif" font-size="14.00" fill="#000000">TeamListModule</text>
</g>
<!-- TeamListModule&#45;&gt;AppModule -->
<g id="edge6" class="edge">
<title>TeamListModule&#45;&gt;AppModule</title>
<path fill="none" stroke="#000000" d="M81,-122.2843C81,-143.3211 81,-175 81,-175 81,-175 413.1743,-175 413.1743,-175"/>
<polygon fill="#000000" stroke="#000000" points="413.1743,-178.5001 423.1743,-175 413.1742,-171.5001 413.1743,-178.5001"/>
</g>
</g>
</svg>
