<?xml version="1.0" encoding="UTF-8" standalone="no"?>
<!DOCTYPE svg PUBLIC "-//W3C//DTD SVG 1.1//EN"
 "http://www.w3.org/Graphics/SVG/1.1/DTD/svg11.dtd">
<!-- Generated by graphviz version 2.40.1 (20161225.0304)
 -->
<!-- Title: dependencies Pages: 1 -->
<svg width="1067pt" height="360pt"
 viewBox="0.00 0.00 1067.00 360.00" xmlns="http://www.w3.org/2000/svg" xmlns:xlink="http://www.w3.org/1999/xlink">
<g id="graph0" class="graph" transform="scale(1 1) rotate(0) translate(4 356)">
<title>dependencies</title>
<polygon fill="#ffffff" stroke="transparent" points="-4,4 -4,-356 1063,-356 1063,4 -4,4"/>
<text text-anchor="start" x="508.5091" y="-42.4" font-family="sans-serif" font-weight="bold" font-size="14.00" fill="#000000">Legend</text>
<polygon fill="#ffffb3" stroke="transparent" points="295.5,-10 295.5,-30 315.5,-30 315.5,-10 295.5,-10"/>
<text text-anchor="start" x="319.129" y="-15.4" font-family="sans-serif" font-size="14.00" fill="#000000"> &#160;Declarations</text>
<polygon fill="#8dd3c7" stroke="transparent" points="408.5,-10 408.5,-30 428.5,-30 428.5,-10 408.5,-10"/>
<text text-anchor="start" x="432.2251" y="-15.4" font-family="sans-serif" font-size="14.00" fill="#000000"> &#160;Module</text>
<polygon fill="#80b1d3" stroke="transparent" points="494.5,-10 494.5,-30 514.5,-30 514.5,-10 494.5,-10"/>
<text text-anchor="start" x="518.2812" y="-15.4" font-family="sans-serif" font-size="14.00" fill="#000000"> &#160;Bootstrap</text>
<polygon fill="#fdb462" stroke="transparent" points="591.5,-10 591.5,-30 611.5,-30 611.5,-10 591.5,-10"/>
<text text-anchor="start" x="615.1732" y="-15.4" font-family="sans-serif" font-size="14.00" fill="#000000"> &#160;Providers</text>
<polygon fill="#fb8072" stroke="transparent" points="687.5,-10 687.5,-30 707.5,-30 707.5,-10 687.5,-10"/>
<text text-anchor="start" x="711.2258" y="-15.4" font-family="sans-serif" font-size="14.00" fill="#000000"> &#160;Exports</text>
<g id="clust1" class="cluster">
<title>cluster_AppModule</title>
<polygon fill="none" stroke="#000000" stroke-dasharray="1,5" points="93,-146 93,-344 1051,-344 1051,-146 93,-146"/>
</g>
<g id="clust2" class="cluster">
<title>cluster_AppModule_declarations</title>
<polygon fill="none" stroke="#000000" points="385,-154 385,-206 1043,-206 1043,-154 385,-154"/>
</g>
<g id="clust7" class="cluster">
<title>cluster_AppModule_imports</title>
<polygon fill="none" stroke="#000000" points="101,-154 101,-206 377,-206 377,-154 101,-154"/>
</g>
<g id="clust9" class="cluster">
<title>cluster_AppModule_bootstrap</title>
<polygon fill="none" stroke="#000000" points="488,-284 488,-336 612,-336 612,-284 488,-284"/>
</g>
<g id="clust17" class="cluster">
<title>cluster_TeamListModule</title>
<polygon fill="none" stroke="#000000" stroke-dasharray="1,5" points="8,-70 8,-138 322,-138 322,-70 8,-70"/>
</g>
<g id="clust18" class="cluster">
<title>cluster_TeamListModule_declarations</title>
<polygon fill="none" stroke="#000000" points="16,-78 16,-130 314,-130 314,-78 16,-78"/>
</g>
<!-- AppComponent -->
<g id="node1" class="node">
<title>AppComponent</title>
<polygon fill="#ffffb3" stroke="#000000" points="1034.9399,-198 929.0601,-198 929.0601,-162 1034.9399,-162 1034.9399,-198"/>
<text text-anchor="middle" x="982" y="-175.8" font-family="Times,serif" font-size="14.00" fill="#000000">AppComponent</text>
</g>
<!-- AppModule -->
<g id="node5" class="node">
<title>AppModule</title>
<polygon fill="#8dd3c7" stroke="#000000" points="591.6571,-263 588.6571,-267 567.6571,-267 564.6571,-263 508.3429,-263 508.3429,-227 591.6571,-227 591.6571,-263"/>
<text text-anchor="middle" x="550" y="-240.8" font-family="Times,serif" font-size="14.00" fill="#000000">AppModule</text>
</g>
<!-- AppComponent&#45;&gt;AppModule -->
<g id="edge1" class="edge">
<title>AppComponent&#45;&gt;AppModule</title>
<path fill="none" stroke="#000000" d="M982,-198.2843C982,-219.3211 982,-251 982,-251 982,-251 601.8145,-251 601.8145,-251"/>
<polygon fill="#000000" stroke="#000000" points="601.8145,-247.5001 591.8145,-251 601.8145,-254.5001 601.8145,-247.5001"/>
</g>
<!-- NewUserDialogComponent -->
<g id="node2" class="node">
<title>NewUserDialogComponent</title>
<polygon fill="#ffffb3" stroke="#000000" points="911.2892,-198 738.7108,-198 738.7108,-162 911.2892,-162 911.2892,-198"/>
<text text-anchor="middle" x="825" y="-175.8" font-family="Times,serif" font-size="14.00" fill="#000000">NewUserDialogComponent</text>
</g>
<!-- NewUserDialogComponent&#45;&gt;AppModule -->
<g id="edge2" class="edge">
<title>NewUserDialogComponent&#45;&gt;AppModule</title>
<path fill="none" stroke="#000000" d="M825,-198.0225C825,-215.3734 825,-239 825,-239 825,-239 601.7666,-239 601.7666,-239"/>
<polygon fill="#000000" stroke="#000000" points="601.7666,-235.5001 591.7666,-239 601.7665,-242.5001 601.7666,-235.5001"/>
</g>
<!-- TeamOverviewComponent -->
<g id="node3" class="node">
<title>TeamOverviewComponent</title>
<polygon fill="#ffffb3" stroke="#000000" points="721.3989,-198 552.6011,-198 552.6011,-162 721.3989,-162 721.3989,-198"/>
<text text-anchor="middle" x="637" y="-175.8" font-family="Times,serif" font-size="14.00" fill="#000000">TeamOverviewComponent</text>
</g>
<!-- TeamOverviewComponent&#45;&gt;AppModule -->
<g id="edge3" class="edge">
<title>TeamOverviewComponent&#45;&gt;AppModule</title>
<path fill="none" stroke="#000000" d="M572.3145,-198.1061C572.3145,-198.1061 572.3145,-216.991 572.3145,-216.991"/>
<polygon fill="#000000" stroke="#000000" points="568.8146,-216.9909 572.3145,-226.991 575.8146,-216.991 568.8146,-216.9909"/>
</g>
<!-- UserDetailComponent -->
<g id="node4" class="node">
<title>UserDetailComponent</title>
<polygon fill="#ffffb3" stroke="#000000" points="534.9664,-198 393.0336,-198 393.0336,-162 534.9664,-162 534.9664,-198"/>
<text text-anchor="middle" x="464" y="-175.8" font-family="Times,serif" font-size="14.00" fill="#000000">UserDetailComponent</text>
</g>
<!-- UserDetailComponent&#45;&gt;AppModule -->
<g id="edge4" class="edge">
<title>UserDetailComponent&#45;&gt;AppModule</title>
<path fill="none" stroke="#000000" d="M521.5775,-198.1061C521.5775,-198.1061 521.5775,-216.991 521.5775,-216.991"/>
<polygon fill="#000000" stroke="#000000" points="518.0776,-216.9909 521.5775,-226.991 525.0776,-216.991 518.0776,-216.9909"/>
</g>
<!-- AppComponent  -->
<g id="node8" class="node">
<title>AppComponent </title>
<polygon fill="#80b1d3" stroke="#000000" points="604.439,-328 495.561,-328 495.561,-292 604.439,-292 604.439,-328"/>
<text text-anchor="middle" x="550" y="-305.8" font-family="Times,serif" font-size="14.00" fill="#000000">AppComponent </text>
</g>
<!-- AppModule&#45;&gt;AppComponent  -->
<g id="edge7" class="edge">
<title>AppModule&#45;&gt;AppComponent </title>
<path fill="none" stroke="#000000" stroke-dasharray="1,5" d="M550,-263.1061C550,-263.1061 550,-281.991 550,-281.991"/>
<polygon fill="#000000" stroke="#000000" points="546.5001,-281.9909 550,-291.991 553.5001,-281.991 546.5001,-281.9909"/>
</g>
<!-- AppRoutingModule -->
<g id="node6" class="node">
<title>AppRoutingModule</title>
<polygon fill="#8dd3c7" stroke="#000000" points="369.2744,-198 366.2744,-202 345.2744,-202 342.2744,-198 240.7256,-198 240.7256,-162 369.2744,-162 369.2744,-198"/>
<text text-anchor="middle" x="305" y="-175.8" font-family="Times,serif" font-size="14.00" fill="#000000">AppRoutingModule</text>
</g>
<!-- AppRoutingModule&#45;&gt;AppModule -->
<g id="edge5" class="edge">
<title>AppRoutingModule&#45;&gt;AppModule</title>
<path fill="none" stroke="#000000" d="M305,-198.0225C305,-215.3734 305,-239 305,-239 305,-239 498.1614,-239 498.1614,-239"/>
<polygon fill="#000000" stroke="#000000" points="498.1614,-242.5001 508.1614,-239 498.1613,-235.5001 498.1614,-242.5001"/>
</g>
<!-- TeamListModule -->
<g id="node7" class="node">
<title>TeamListModule</title>
<polygon fill="#8dd3c7" stroke="#000000" points="222.7008,-198 219.7008,-202 198.7008,-202 195.7008,-198 109.2992,-198 109.2992,-162 222.7008,-162 222.7008,-198"/>
<text text-anchor="middle" x="166" y="-175.8" font-family="Times,serif" font-size="14.00" fill="#000000">TeamListModule</text>
</g>
<!-- TeamListModule&#45;&gt;AppModule -->
<g id="edge6" class="edge">
<title>TeamListModule&#45;&gt;AppModule</title>
<path fill="none" stroke="#000000" d="M166,-198.2843C166,-219.3211 166,-251 166,-251 166,-251 498.1743,-251 498.1743,-251"/>
<polygon fill="#000000" stroke="#000000" points="498.1743,-254.5001 508.1743,-251 498.1742,-247.5001 498.1743,-254.5001"/>
</g>
<!-- ListUserComponent -->
<g id="node9" class="node">
<title>ListUserComponent</title>
<polygon fill="#ffffb3" stroke="#000000" points="305.538,-122 176.462,-122 176.462,-86 305.538,-86 305.538,-122"/>
<text text-anchor="middle" x="241" y="-99.8" font-family="Times,serif" font-size="14.00" fill="#000000">ListUserComponent</text>
</g>
<!-- ListUserComponent&#45;&gt;TeamListModule -->
<g id="edge8" class="edge">
<title>ListUserComponent&#45;&gt;TeamListModule</title>
<path fill="none" stroke="#000000" d="M199.4159,-122.0109C199.4159,-122.0109 199.4159,-151.855 199.4159,-151.855"/>
<polygon fill="#000000" stroke="#000000" points="195.9159,-151.8549 199.4159,-161.855 202.9159,-151.855 195.9159,-151.8549"/>
</g>
<!-- TeamListComponent -->
<g id="node10" class="node">
<title>TeamListComponent</title>
<polygon fill="#ffffb3" stroke="#000000" points="158.4832,-122 23.5168,-122 23.5168,-86 158.4832,-86 158.4832,-122"/>
<text text-anchor="middle" x="91" y="-99.8" font-family="Times,serif" font-size="14.00" fill="#000000">TeamListComponent</text>
</g>
<!-- TeamListComponent&#45;&gt;TeamListModule -->
<g id="edge9" class="edge">
<title>TeamListComponent&#45;&gt;TeamListModule</title>
<path fill="none" stroke="#000000" d="M133.9457,-122.0109C133.9457,-122.0109 133.9457,-151.855 133.9457,-151.855"/>
<polygon fill="#000000" stroke="#000000" points="130.4457,-151.8549 133.9457,-161.855 137.4457,-151.855 130.4457,-151.8549"/>
</g>
</g>
</svg>
